<svg width="80" height="80" viewBox="0 0 80 80" fill="none" xmlns="http://www.w3.org/2000/svg">
<g clip-path="url(#clip0_2582_76)">
<rect width="80" height="80" fill="white"/>
<path d="M22.8023 30.024C27.0956 30.024 30.5116 31.0693 33.0503 33.16C35.6263 35.2133 37.2503 37.9387 37.9223 41.336H26.3303C25.845 39.544 24.5756 38.648 22.5223 38.648C21.365 38.648 20.7863 39.096 20.7863 39.992C20.7863 40.6267 21.197 41.112 22.0183 41.448C22.877 41.784 24.221 42.1387 26.0503 42.512C28.4396 42.96 30.4743 43.5013 32.1543 44.136C33.8716 44.7333 35.3463 45.7227 36.5783 47.104C37.8103 48.4853 38.4263 50.3707 38.4263 52.76C38.4263 54.6267 37.9036 56.288 36.8583 57.744C35.813 59.2 34.2823 60.3387 32.2663 61.16C30.2503 61.9813 27.8796 62.392 25.1543 62.392C20.5996 62.392 16.9783 61.4213 14.2903 59.48C11.6023 57.5387 9.94098 54.7387 9.30631 51.08H21.2343C21.4583 52.9093 22.7463 53.824 25.0983 53.824C26.3676 53.824 27.0023 53.376 27.0023 52.48C27.0023 51.7707 26.573 51.248 25.7143 50.912C24.8556 50.576 23.4743 50.24 21.5703 49.904C19.1436 49.4187 17.1276 48.896 15.5223 48.336C13.9543 47.776 12.573 46.824 11.3783 45.48C10.1836 44.136 9.58631 42.288 9.58631 39.936C9.58631 38.032 10.0903 36.3333 11.0983 34.84C12.1063 33.3467 13.5996 32.1707 15.5783 31.312C17.557 30.4533 19.965 30.024 22.8023 30.024Z" fill="#191919"/>
<path fill-rule="evenodd" clip-rule="evenodd" d="M72 15V67H48V15H72Z" fill="#FF5851"/>
</g>
<defs>
<clipPath id="clip0_2582_76">
<rect width="80" height="80" fill="white"/>
</clipPath>
</defs>
</svg>
