<svg id="visual" viewBox="0 0 900 600" width="900" height="600" xmlns="http://www.w3.org/2000/svg" xmlns:xlink="http://www.w3.org/1999/xlink" version="1.1"><rect x="0" y="0" width="900" height="600" fill="#111"></rect><defs><linearGradient id="grad1_0" x1="33.3%" y1="0%" x2="100%" y2="100%"><stop offset="20%" stop-color="#ffc79a" stop-opacity="1"></stop><stop offset="80%" stop-color="#ffc79a" stop-opacity="1"></stop></linearGradient></defs><defs><linearGradient id="grad1_1" x1="33.3%" y1="0%" x2="100%" y2="100%"><stop offset="20%" stop-color="#ffc79a" stop-opacity="1"></stop><stop offset="80%" stop-color="#a78468" stop-opacity="1"></stop></linearGradient></defs><defs><linearGradient id="grad1_2" x1="33.3%" y1="0%" x2="100%" y2="100%"><stop offset="20%" stop-color="#57473b" stop-opacity="1"></stop><stop offset="80%" stop-color="#a78468" stop-opacity="1"></stop></linearGradient></defs><defs><linearGradient id="grad1_3" x1="33.3%" y1="0%" x2="100%" y2="100%"><stop offset="20%" stop-color="#57473b" stop-opacity="1"></stop><stop offset="80%" stop-color="#111111" stop-opacity="1"></stop></linearGradient></defs><defs><linearGradient id="grad2_0" x1="0%" y1="0%" x2="66.7%" y2="100%"><stop offset="20%" stop-color="#ffc79a" stop-opacity="1"></stop><stop offset="80%" stop-color="#ffc79a" stop-opacity="1"></stop></linearGradient></defs><defs><linearGradient id="grad2_1" x1="0%" y1="0%" x2="66.7%" y2="100%"><stop offset="20%" stop-color="#a78468" stop-opacity="1"></stop><stop offset="80%" stop-color="#ffc79a" stop-opacity="1"></stop></linearGradient></defs><defs><linearGradient id="grad2_2" x1="0%" y1="0%" x2="66.7%" y2="100%"><stop offset="20%" stop-color="#a78468" stop-opacity="1"></stop><stop offset="80%" stop-color="#57473b" stop-opacity="1"></stop></linearGradient></defs><defs><linearGradient id="grad2_3" x1="0%" y1="0%" x2="66.7%" y2="100%"><stop offset="20%" stop-color="#111111" stop-opacity="1"></stop><stop offset="80%" stop-color="#57473b" stop-opacity="1"></stop></linearGradient></defs><g transform="translate(900, 0)"><path d="M0 351.5C-38.1 330.8 -76.2 310.1 -123.2 297.5C-170.3 284.8 -226.4 280.3 -248.6 248.6C-270.8 216.9 -259.2 158.1 -270.7 112.1C-282.2 66.2 -316.9 33.1 -351.5 0L0 0Z" fill="#332b25"></path><path d="M0 263.7C-28.6 248.1 -57.1 232.6 -92.4 223.1C-127.7 213.6 -169.8 210.2 -186.4 186.4C-203.1 162.7 -194.4 118.6 -203 84.1C-211.7 49.6 -237.7 24.8 -263.7 0L0 0Z" fill="#7e6551"></path><path d="M0 175.8C-19 165.4 -38.1 155.1 -61.6 148.7C-85.1 142.4 -113.2 140.1 -124.3 124.3C-135.4 108.4 -129.6 79 -135.3 56.1C-141.1 33.1 -158.4 16.5 -175.8 0L0 0Z" fill="#d2a581"></path><path d="M0 87.9C-9.5 82.7 -19 77.5 -30.8 74.4C-42.6 71.2 -56.6 70.1 -62.1 62.1C-67.7 54.2 -64.8 39.5 -67.7 28C-70.6 16.5 -79.2 8.3 -87.9 0L0 0Z" fill="#ffc79a"></path></g><g transform="translate(0, 600)"><path d="M0 -351.5C48.6 -349.8 97.1 -348.1 134.5 -324.8C171.9 -301.5 198.2 -256.6 218.5 -218.5C238.8 -180.4 253.2 -149 274.4 -113.7C295.6 -78.4 323.6 -39.2 351.5 0L0 0Z" fill="#332b25"></path><path d="M0 -263.7C36.4 -262.4 72.8 -261.1 100.9 -243.6C128.9 -226.1 148.6 -192.5 163.9 -163.9C179.1 -135.3 189.9 -111.7 205.8 -85.2C221.7 -58.8 242.7 -29.4 263.7 0L0 0Z" fill="#7e6551"></path><path d="M0 -175.8C24.3 -174.9 48.6 -174 67.3 -162.4C86 -150.7 99.1 -128.3 109.2 -109.2C119.4 -90.2 126.6 -74.5 137.2 -56.8C147.8 -39.2 161.8 -19.6 175.8 0L0 0Z" fill="#d2a581"></path><path d="M0 -87.9C12.1 -87.5 24.3 -87 33.6 -81.2C43 -75.4 49.5 -64.2 54.6 -54.6C59.7 -45.1 63.3 -37.2 68.6 -28.4C73.9 -19.6 80.9 -9.8 87.9 0L0 0Z" fill="#ffc79a"></path></g></svg>