<svg width="320" height="320" viewBox="0 0 320 320" fill="none" xmlns="http://www.w3.org/2000/svg">
<g clip-path="url(#clip0_474_2)">
<path d="M319.5 160C319.5 248.366 247.866 320 159.5 320C71.1344 320 -0.5 248.366 -0.5 160C-0.5 71.6344 71.1344 0 159.5 0C247.866 0 319.5 71.6344 319.5 160Z" fill="#F9F5F2"/>
<path d="M161.24 96.48C149.72 96.48 139.88 99.12 131.72 104.4C123.56 109.68 117.32 117.04 113 126.48C108.68 135.76 106.52 146.8 106.52 159.6C106.52 172.56 108.84 183.6 113.48 192.72C118.12 201.68 124.52 208.48 132.68 213.12C141 217.76 150.52 220.08 161.24 220.08C169.08 220.08 175.96 219.12 181.88 217.2C187.96 215.12 193.08 212.16 197.24 208.32C201.4 204.32 204.6 199.52 206.84 193.92C209.24 188.32 210.44 182.08 210.44 175.2V159.84L224.84 174.48H157.4V147.36H239V246H213.08L210.44 217.68L214.04 221.28C211.48 226.56 207.4 231.28 201.8 235.44C196.36 239.6 189.88 242.88 182.36 245.28C174.84 247.52 166.68 248.64 157.88 248.64C141.56 248.64 127.08 244.96 114.44 237.6C101.96 230.08 92.12 219.6 84.92 206.16C77.88 192.72 74.36 176.96 74.36 158.88C74.36 141.12 77.96 125.44 85.16 111.84C92.52 98.08 102.76 87.28 115.88 79.44C129.16 71.6 144.52 67.68 161.96 67.68C175.4 67.68 187.56 70.16 198.44 75.12C209.32 79.92 218.2 86.72 225.08 95.52C232.12 104.32 236.44 114.72 238.04 126.72H205.64C202.92 116.32 197.48 108.72 189.32 103.92C181.16 98.96 171.8 96.48 161.24 96.48Z" fill="#987359"/>
</g>
<defs>
<clipPath id="clip0_474_2">
<rect width="320" height="320" fill="white"/>
</clipPath>
</defs>
</svg>
